# xmcd
#
# Track frame offsets:
#	150
#	14370
#	24441
#	38657
#	48091
#	66177
#	77120
#	90049
#	110501
#	123546
#	140719
#	156765
#	174553
#	188137
#
# Disc length: 2691 seconds
#
# Revision: 1
# Processed by: cddbd v1.5.2PL0 Copyright (c) Steve Scherf et al.
# Submitted via: audiograbber 1.83.01
#
DISCID=ac0a810e
DTITLE=Howlin' Wolf - Howlin Wolf - The London Sessions [1970]
DYEAR=1970
DGENRE=blues
TTITLE0=Rockin' Daddy
TTITLE1=I Aint Superstitious
TTITLE2=Sittin' On Top Of The World
TTITLE3=Wooried About My Baby
TTITLE4=What A Woman !
TTITLE5=Poor Boy
TTITLE6=Built For Comfort
TTITLE7=Who's Been Talking?
TTITLE8=Red Rooster (Rehersal)
TTITLE9=Red Rooster
TTITLE10=Do The Do
TTITLE11=Highway 49
TTITLE12=Wang Dang Doodle
TTITLE13=Killing Floor
EXTD=Extra Track 14 Killing Floor
EXTT0=
EXTT1=
EXTT2=
EXTT3=
EXTT4=
EXTT5=
EXTT6=
EXTT7=
EXTT8=
EXTT9=
EXTT10=
EXTT11=
EXTT12=
EXTT13=Bonus Track Not on the original session
PLAYORDER=
